<svg width="28" height="28" viewBox="0 0 28 28" fill="currentColor" xmlns="http://www.w3.org/2000/svg">
<path d="M22.1666 12.25H11.9081L14.7536 9.40448C15.0819 9.07635 15.2663 8.63123 15.2665 8.16706C15.2666 7.7029 15.0823 7.2577 14.7541 6.9294C14.426 6.60111 13.9809 6.41661 13.5167 6.4165C13.0526 6.41639 12.6073 6.60068 12.2791 6.92882L8.09539 11.1125C7.33095 11.879 6.90167 12.9174 6.90167 14C6.90167 15.0826 7.33095 16.1209 8.09539 16.8875L12.2791 21.0712C12.6073 21.3993 13.0526 21.5836 13.5167 21.5835C13.9809 21.5834 14.426 21.3989 14.7541 21.0706C15.0823 20.7423 15.2666 20.2971 15.2665 19.8329C15.2663 19.3687 15.0819 18.9236 14.7536 18.5955L11.9081 15.75H22.1666C22.6307 15.75 23.0758 15.5656 23.404 15.2374C23.7322 14.9092 23.9166 14.4641 23.9166 14C23.9166 13.5359 23.7322 13.0907 23.404 12.7625C23.0758 12.4344 22.6307 12.25 22.1666 12.25Z"/>
</svg>
