<svg width="24" height="24" viewBox="0 0 24 24" fill="none" xmlns="http://www.w3.org/2000/svg">
<g clipPath="url(#clip0_1_389)">
<path d="M9.28804 13.0668C6.97104 13.5128 5.82304 16.0928 5.32504 17.7008C5.27808 17.8507 5.26708 18.0096 5.29294 18.1645C5.31881 18.3194 5.3808 18.4661 5.4739 18.5926C5.567 18.7191 5.68859 18.8219 5.82882 18.8926C5.96905 18.9634 6.12398 19.0001 6.28104 18.9998H10C10.4172 18.9999 10.8297 18.913 11.2113 18.7447C11.593 18.5763 11.9353 18.3302 12.2165 18.0222C12.4977 17.7141 12.7115 17.3507 12.8444 16.9553C12.9772 16.5599 13.0261 16.1412 12.988 15.7258C12.9349 15.3014 12.7947 14.8926 12.5762 14.5249C12.3577 14.1571 12.0657 13.8385 11.7183 13.5889C11.371 13.3393 10.9758 13.1641 10.5577 13.0742C10.1395 12.9844 9.70725 12.9819 9.28804 13.0668Z" fill="white"/>
<path d="M23 8.979C22.7348 8.979 22.4804 9.08436 22.2929 9.27189C22.1054 9.45943 22 9.71378 22 9.979V15H18C17.2044 15 16.4413 15.3161 15.8787 15.8787C15.3161 16.4413 15 17.2044 15 18V22H5C4.20435 22 3.44129 21.6839 2.87868 21.1213C2.31607 20.5587 2 19.7956 2 19V5C2 4.20435 2.31607 3.44129 2.87868 2.87868C3.44129 2.31607 4.20435 2 5 2H16.042C16.3072 2 16.5616 1.89464 16.7491 1.70711C16.9366 1.51957 17.042 1.26522 17.042 1C17.042 0.734784 16.9366 0.48043 16.7491 0.292893C16.5616 0.105357 16.3072 0 16.042 0L5 0C3.67441 0.00158786 2.40356 0.528882 1.46622 1.46622C0.528882 2.40356 0.00158786 3.67441 0 5L0 19C0.00158786 20.3256 0.528882 21.5964 1.46622 22.5338C2.40356 23.4711 3.67441 23.9984 5 24H16.343C16.9998 24.0019 17.6504 23.8734 18.2572 23.6221C18.8639 23.3708 19.4149 23.0017 19.878 22.536L22.536 19.878C23.0017 19.4149 23.3708 18.8639 23.6221 18.2572C23.8734 17.6504 24.0019 16.9998 24 16.343V9.979C24 9.71378 23.8946 9.45943 23.7071 9.27189C23.5196 9.08436 23.2652 8.979 23 8.979ZM18.464 21.122C18.0607 21.5208 17.5534 21.798 17 21.922V18C17 17.7348 17.1054 17.4804 17.2929 17.2929C17.4804 17.1054 17.7348 17 18 17H21.925C21.801 17.5534 21.5238 18.0607 21.125 18.464L18.464 21.122Z" fill="white"/>
<path d="M14.5661 14.1699C14.3684 14.1698 14.1751 14.1111 14.0107 14.0013C13.8462 13.8914 13.7181 13.7352 13.6424 13.5525C13.5668 13.3698 13.547 13.1688 13.5855 12.9748C13.6241 12.7809 13.7193 12.6027 13.8591 12.4629L21.7121 4.60986C21.7999 4.52227 21.8695 4.41823 21.917 4.30369C21.9646 4.18915 21.989 4.06636 21.989 3.94236C21.989 3.81836 21.9646 3.69557 21.917 3.58103C21.8695 3.4665 21.7999 3.36245 21.7121 3.27486C21.6228 3.18204 21.5147 3.10946 21.395 3.06201C21.2752 3.01457 21.1467 2.99338 21.0181 2.99986C20.8896 3.00266 20.763 3.03199 20.6463 3.08603C20.5296 3.14006 20.4254 3.21763 20.3401 3.31386L12.7401 11.7209C12.5623 11.9177 12.3136 12.0357 12.0487 12.0492C11.7838 12.0626 11.5244 11.9702 11.3276 11.7924C11.1308 11.6145 11.0127 11.3658 10.9993 11.1009C10.9859 10.836 11.0783 10.5767 11.2561 10.3799L18.8561 1.97986C19.1226 1.68233 19.4468 1.44204 19.809 1.27358C20.1712 1.10512 20.5638 1.012 20.9631 0.999861C21.363 0.991292 21.7606 1.06318 22.1321 1.21126C22.5037 1.35934 22.8417 1.58059 23.1261 1.86186C23.6774 2.41434 23.9869 3.16292 23.9869 3.94336C23.9869 4.72381 23.6774 5.47238 23.1261 6.02486L15.2731 13.8779C15.1804 13.9709 15.0702 14.0445 14.9489 14.0947C14.8275 14.1448 14.6974 14.1703 14.5661 14.1699Z" fill="white"/>
</g>
<defs>
<clipPath id="clip0_1_389">
<rect width="24" height="24" fill="white"/>
</clipPath>
</defs>
</svg>
