<svg width="24" height="24" viewBox="0 0 24 24" fill="none" xmlns="http://www.w3.org/2000/svg">
<g clipPath="url(#clip0_1_109)">
<path d="M23.9998 11.2459C23.8548 8.90625 23.0283 6.66019 21.6223 4.78457C20.2163 2.90894 18.2922 1.48573 16.0871 0.690381C13.8821 -0.104971 11.4924 -0.237704 9.21287 0.308546C6.93329 0.854796 4.86338 2.05615 3.25828 3.76452C1.65318 5.47289 0.583065 7.6136 0.179837 9.92278C-0.223391 12.2319 0.0578963 14.6086 0.989026 16.7599C1.92016 18.9111 3.46043 20.7429 5.41997 22.0294C7.37952 23.3159 9.67268 24.0009 12.0168 23.9999H18.4998C19.9579 23.998 21.3558 23.418 22.3868 22.3869C23.4179 21.3559 23.9979 19.958 23.9998 18.4999V11.3399V11.2459ZM20.9998 18.4999C20.9998 19.1629 20.7364 19.7988 20.2676 20.2676C19.7987 20.7365 19.1628 20.9999 18.4998 20.9999H12.0168C10.7463 20.9991 9.49016 20.7306 8.33038 20.2118C7.1706 19.693 6.13319 18.9355 5.2858 17.9889C4.43465 17.0429 3.7956 15.9259 3.41151 14.7127C3.02742 13.4996 2.90716 12.2183 3.0588 10.9549C3.29806 8.96305 4.19322 7.10745 5.60324 5.68041C7.01326 4.25337 8.85799 3.33602 10.8468 3.07288C11.2359 3.02432 11.6277 2.99994 12.0198 2.99988C14.1159 2.99388 16.1474 3.7252 17.7588 5.06588C18.6982 5.84619 19.4697 6.80878 20.0267 7.89553C20.5837 8.98228 20.9148 10.1706 20.9998 11.3889V18.4999Z" fill="white"/>
<path d="M9.50012 11.0002H12.5001C12.8979 11.0002 13.2795 10.8421 13.5608 10.5608C13.8421 10.2795 14.0001 9.89798 14.0001 9.50015C14.0001 9.10233 13.8421 8.7208 13.5608 8.43949C13.2795 8.15819 12.8979 8.00015 12.5001 8.00015H9.50012C9.1023 8.00015 8.72077 8.15819 8.43946 8.43949C8.15816 8.7208 8.00012 9.10233 8.00012 9.50015C8.00012 9.89798 8.15816 10.2795 8.43946 10.5608C8.72077 10.8421 9.1023 11.0002 9.50012 11.0002Z" fill="white"/>
<path d="M16.5001 12.9998H9.50012C9.1023 12.9998 8.72077 13.1579 8.43946 13.4392C8.15816 13.7205 8.00012 14.102 8.00012 14.4998C8.00012 14.8977 8.15816 15.2792 8.43946 15.5605C8.72077 15.8418 9.1023 15.9998 9.50012 15.9998H16.5001C16.8979 15.9998 17.2795 15.8418 17.5608 15.5605C17.8421 15.2792 18.0001 14.8977 18.0001 14.4998C18.0001 14.102 17.8421 13.7205 17.5608 13.4392C17.2795 13.1579 16.8979 12.9998 16.5001 12.9998Z" fill="white"/>
</g>
<defs>
<clipPath id="clip0_1_109">
<rect width="24" height="24" fill="white"/>
</clipPath>
</defs>
</svg>
