<svg width="24" height="24" viewBox="0 0 24 24" fill="none" xmlns="http://www.w3.org/2000/svg">
<g clip-path="url(#clip0_1_108)">
<path d="M11.4524 14.0188C7.19066 14.404 3.94381 18.0051 4.00039 22.2838V22.5008C4.00039 23.3292 4.67197 24.0008 5.50039 24.0008C6.32881 24.0008 7.00039 23.3292 7.00039 22.5008V22.2238C6.9553 19.5967 8.89405 17.3564 11.5004 17.0238C14.2516 16.751 16.7031 18.7601 16.976 21.5114C16.9921 21.674 17.0002 21.8373 17.0004 22.0008V22.5008C17.0004 23.3292 17.672 24.0008 18.5004 24.0008C19.3288 24.0008 20.0004 23.3292 20.0004 22.5008V22.0008C19.9955 17.5775 16.4058 13.9957 11.9825 14.0006C11.8057 14.0008 11.6289 14.0069 11.4524  14.0188Z" fill="white"/>
<path d="M12.0004 12C15.3141 12 18.0004 9.31369 18.0004 6C18.0004 2.68631 15.3141 0 12.0004 0C8.68674 0 6.00043 2.68631 6.00043 6C6.00371 9.31233 8.6881 11.9967 12.0004 12ZM12.0004 3C13.6573 3 15.0004 4.34316 15.0004 6C15.0004 7.65684 13.6573 9 12.0004 9C10.3436 9 9.00043 7.65684 9.00043 6C9.00043 4.34316 10.3436 3 12.0004 3Z" fill="white"/>
</g>
<defs>
<clipPath id="clip0_1_108">
<rect width="24" height="24" fill="white"/>
</clipPath>
</defs>
</svg>
