<svg width="20" height="20" viewBox="0 0 20 20" fill="currentColor" xmlns="http://www.w3.org/2000/svg">
<g clip-path="url(#clip0_1_141)">
<path d="M19.6346 17.8712L15.7636 13.9986C18.6601 10.128 17.8703 4.64213 13.9996 1.7457C10.129 -1.15074 4.64317 -0.360973 1.74674 3.50967C-1.1497 7.38032 -0.359936 12.8661 3.51071 15.7626C6.61993 18.0892 10.8904 18.0892 13.9996 15.7626L17.8722 19.6352C18.3589 20.1218 19.1479 20.1218 19.6345 19.6352C20.1212 19.1485 20.1212 18.3595 19.6345 17.8729L19.6346 17.8712ZM8.78745 15.0151C5.3474 15.0151 2.55873 12.2265 2.55873 8.78641C2.55873 5.34637 5.3474 2.55769 8.78745 2.55769C12.2275 2.55769 15.0162 5.34637 15.0162 8.78641C15.0125 12.2249 12.226 15.0115 8.78745 15.0151Z"/>
</g>
<defs>
<clipPath id="clip0_1_141">
<rect width="20" height="20"/>
</clipPath>
</defs>
</svg>
