<svg width="24" height="24" viewBox="0 0 24 24" fill="none" xmlns="http://www.w3.org/2000/svg">
<g clipPath="url(#clip0_1_394)">
<path d="M8 21H3.409C3.30061 20.9997 3.19673 20.9566 3.12009 20.8799C3.04344 20.8033 3.00026 20.6994 3 20.591V3.409C3.00026 3.30061 3.04344 3.19673 3.12009 3.12009C3.19673 3.04344 3.30061 3.00026 3.409 3H8C8.39782 3 8.77936 2.84196 9.06066 2.56066C9.34196 2.27936 9.5 1.89782 9.5 1.5C9.5 1.10218 9.34196 0.720644 9.06066 0.43934C8.77936 0.158035 8.39782 0 8 0L3.409 0C2.5052 0.00105862 1.63872 0.36056 0.999642 0.999642C0.36056 1.63872 0.00105862 2.5052 0 3.409L0 20.591C0.00105862 21.4948 0.36056 22.3613 0.999642 23.0004C1.63872 23.6394 2.5052 23.9989 3.409 24H8C8.39782 24 8.77936 23.842 9.06066 23.5607C9.34196 23.2794 9.5 22.8978 9.5 22.5C9.5 22.1022 9.34196 21.7206 9.06066 21.4393C8.77936 21.158 8.39782 21 8 21Z" fill="#EF2A39"/>
<path d="M22.682 8.81727L18.8 4.93827C18.6607 4.79901 18.4953 4.68855 18.3132 4.6132C18.1312 4.53785 17.9361 4.4991 17.7391 4.49915C17.5421 4.49919 17.3471 4.53804 17.1651 4.61347C16.9831 4.6889 16.8178 4.79944 16.6785 4.93877C16.5392 5.0781 16.4288 5.2435 16.3534 5.42553C16.2781 5.60755 16.2393 5.80263 16.2394 5.99963C16.2395 6.39748 16.3976 6.77901 16.679 7.06027L20.091 10.4713L6.5 10.4993C6.10218 10.4993 5.72064 10.6573 5.43934 10.9386C5.15804 11.2199 5 11.6014 5 11.9993C5 12.3971 5.15804 12.7786 5.43934 13.0599C5.72064 13.3412 6.10218 13.4993 6.5 13.4993L20.146 13.4743L16.679 16.9413C16.4142 17.2257 16.2701 17.6019 16.2771 17.9905C16.2842 18.3791 16.4418 18.7498 16.7167 19.0245C16.9917 19.2992 17.3625 19.4564 17.7511 19.4631C18.1398 19.4698 18.5158 19.3254 18.8 19.0603L22.679 15.1813C23.0969 14.7634 23.4283 14.2673 23.6545 13.7214C23.8806 13.1754 23.997 12.5902 23.997 11.9993C23.997 11.4083 23.8806 10.8232 23.6545 10.2772C23.4283 9.73122 23.0969 9.23514 22.679 8.81727H22.682Z" fill="#EF2A39"/>
</g>
<defs>
<clipPath id="clip0_1_394">
<rect width="24" height="24" fill="white"/>
</clipPath>
</defs>
</svg>
